<?xml version="1.0" encoding="utf-8" standalone="no"?>
<!DOCTYPE svg PUBLIC "-//W3C//DTD SVG 1.1//EN"
  "http://www.w3.org/Graphics/SVG/1.1/DTD/svg11.dtd">
<svg xmlns:xlink="http://www.w3.org/1999/xlink" width="460.8pt" height="345.6pt" viewBox="0 0 460.8 345.6" xmlns="http://www.w3.org/2000/svg" version="1.1">
 <metadata>
  <rdf:RDF xmlns:dc="http://purl.org/dc/elements/1.1/" xmlns:cc="http://creativecommons.org/ns#" xmlns:rdf="http://www.w3.org/1999/02/22-rdf-syntax-ns#">
   <cc:Work>
    <dc:type rdf:resource="http://purl.org/dc/dcmitype/StillImage"/>
    <dc:date>2024-08-20T16:08:49.532069</dc:date>
    <dc:format>image/svg+xml</dc:format>
    <dc:creator>
     <cc:Agent>
      <dc:title>Matplotlib v3.9.1, https://matplotlib.org/</dc:title>
     </cc:Agent>
    </dc:creator>
   </cc:Work>
  </rdf:RDF>
 </metadata>
 <defs>
  <style type="text/css">*{stroke-linejoin: round; stroke-linecap: butt}</style>
 </defs>
 <g id="figure_1">
  <g id="patch_1">
   <path d="M 0 345.6
L 460.8 345.6
L 460.8 0
L 0 0
L 0 345.6
z
" style="fill: none"/>
  </g>
  <g id="axes_1">
   <g id="patch_2">
    <path d="M 57.6 307.584
L 414.72 307.584
L 414.72 41.472
L 57.6 41.472
L 57.6 307.584
z
" style="fill: none"/>
   </g>
   <g id="matplotlib.axis_1">
    <g id="xtick_1">
     <g id="line2d_1">
      <defs>
       <path id="mdaa4f442e3" d="M 0 0
L 0 3.5
" style="stroke: #000000; stroke-width: 0.8"/>
      </defs>
      <g>
       <use xlink:href="#mdaa4f442e3" x="73.832727" y="307.584" style="stroke: #000000; stroke-width: 0.8"/>
      </g>
     </g>
     <g id="text_1">
      <text style="font: 14.5px &quot;Suisse Int&apos;l Mono&quot;; text-anchor: middle" x="73.832727" y="325.0965" transform="rotate(-0 73.832727 325.0965)">0</text>
     </g>
    </g>
    <g id="xtick_2">
     <g id="line2d_2">
      <g>
       <use xlink:href="#mdaa4f442e3" x="126.158385" y="307.584" style="stroke: #000000; stroke-width: 0.8"/>
      </g>
     </g>
     <g id="text_2">
      <text style="font: 14.5px &quot;Suisse Int&apos;l Mono&quot;; text-anchor: middle" x="126.158385" y="325.0965" transform="rotate(-0 126.158385 325.0965)">20</text>
     </g>
    </g>
    <g id="xtick_3">
     <g id="line2d_3">
      <g>
       <use xlink:href="#mdaa4f442e3" x="178.484043" y="307.584" style="stroke: #000000; stroke-width: 0.8"/>
      </g>
     </g>
     <g id="text_3">
      <text style="font: 14.5px &quot;Suisse Int&apos;l Mono&quot;; text-anchor: middle" x="178.484043" y="325.0965" transform="rotate(-0 178.484043 325.0965)">40</text>
     </g>
    </g>
    <g id="xtick_4">
     <g id="line2d_4">
      <g>
       <use xlink:href="#mdaa4f442e3" x="230.809701" y="307.584" style="stroke: #000000; stroke-width: 0.8"/>
      </g>
     </g>
     <g id="text_4">
      <text style="font: 14.5px &quot;Suisse Int&apos;l Mono&quot;; text-anchor: middle" x="230.809701" y="325.0965" transform="rotate(-0 230.809701 325.0965)">60</text>
     </g>
    </g>
    <g id="xtick_5">
     <g id="line2d_5">
      <g>
       <use xlink:href="#mdaa4f442e3" x="283.13536" y="307.584" style="stroke: #000000; stroke-width: 0.8"/>
      </g>
     </g>
     <g id="text_5">
      <text style="font: 14.5px &quot;Suisse Int&apos;l Mono&quot;; text-anchor: middle" x="283.13536" y="325.0965" transform="rotate(-0 283.13536 325.0965)">80</text>
     </g>
    </g>
    <g id="xtick_6">
     <g id="line2d_6">
      <g>
       <use xlink:href="#mdaa4f442e3" x="335.461018" y="307.584" style="stroke: #000000; stroke-width: 0.8"/>
      </g>
     </g>
     <g id="text_6">
      <text style="font: 14.5px &quot;Suisse Int&apos;l Mono&quot;; text-anchor: middle" x="335.461018" y="325.0965" transform="rotate(-0 335.461018 325.0965)">100</text>
     </g>
    </g>
    <g id="xtick_7">
     <g id="line2d_7">
      <g>
       <use xlink:href="#mdaa4f442e3" x="387.786676" y="307.584" style="stroke: #000000; stroke-width: 0.8"/>
      </g>
     </g>
     <g id="text_7">
      <text style="font: 14.5px &quot;Suisse Int&apos;l Mono&quot;; text-anchor: middle" x="387.786676" y="325.0965" transform="rotate(-0 387.786676 325.0965)">120</text>
     </g>
    </g>
    <g id="text_8">
     <text style="font: 15px &quot;Suisse Int&apos;l&quot;; text-anchor: middle" x="236.16" y="342.509" transform="rotate(-0 236.16 342.509)">Elution volume (ml)</text>
    </g>
   </g>
   <g id="matplotlib.axis_2">
    <g id="ytick_1">
     <g id="line2d_8">
      <defs>
       <path id="mbc15024787" d="M 0 0
L -3.5 0
" style="stroke: #000000; stroke-width: 0.8"/>
      </defs>
      <g>
       <use xlink:href="#mbc15024787" x="57.6" y="293.754732" style="stroke: #000000; stroke-width: 0.8"/>
      </g>
     </g>
     <g id="text_9">
      <text style="font: 14.5px &quot;Suisse Int&apos;l Mono&quot;; text-anchor: end" x="50.6" y="299.010982" transform="rotate(-0 50.6 299.010982)">0</text>
     </g>
    </g>
    <g id="ytick_2">
     <g id="line2d_9">
      <g>
       <use xlink:href="#mbc15024787" x="57.6" y="263.023024" style="stroke: #000000; stroke-width: 0.8"/>
      </g>
     </g>
     <g id="text_10">
      <text style="font: 14.5px &quot;Suisse Int&apos;l Mono&quot;; text-anchor: end" x="50.6" y="268.279274" transform="rotate(-0 50.6 268.279274)">25</text>
     </g>
    </g>
    <g id="ytick_3">
     <g id="line2d_10">
      <g>
       <use xlink:href="#mbc15024787" x="57.6" y="232.291317" style="stroke: #000000; stroke-width: 0.8"/>
      </g>
     </g>
     <g id="text_11">
      <text style="font: 14.5px &quot;Suisse Int&apos;l Mono&quot;; text-anchor: end" x="50.6" y="237.547567" transform="rotate(-0 50.6 237.547567)">50</text>
     </g>
    </g>
    <g id="ytick_4">
     <g id="line2d_11">
      <g>
       <use xlink:href="#mbc15024787" x="57.6" y="201.55961" style="stroke: #000000; stroke-width: 0.8"/>
      </g>
     </g>
     <g id="text_12">
      <text style="font: 14.5px &quot;Suisse Int&apos;l Mono&quot;; text-anchor: end" x="50.6" y="206.81586" transform="rotate(-0 50.6 206.81586)">75</text>
     </g>
    </g>
    <g id="ytick_5">
     <g id="line2d_12">
      <g>
       <use xlink:href="#mbc15024787" x="57.6" y="170.827902" style="stroke: #000000; stroke-width: 0.8"/>
      </g>
     </g>
     <g id="text_13">
      <text style="font: 14.5px &quot;Suisse Int&apos;l Mono&quot;; text-anchor: end" x="50.6" y="176.084152" transform="rotate(-0 50.6 176.084152)">100</text>
     </g>
    </g>
    <g id="ytick_6">
     <g id="line2d_13">
      <g>
       <use xlink:href="#mbc15024787" x="57.6" y="140.096195" style="stroke: #000000; stroke-width: 0.8"/>
      </g>
     </g>
     <g id="text_14">
      <text style="font: 14.5px &quot;Suisse Int&apos;l Mono&quot;; text-anchor: end" x="50.6" y="145.352445" transform="rotate(-0 50.6 145.352445)">125</text>
     </g>
    </g>
    <g id="ytick_7">
     <g id="line2d_14">
      <g>
       <use xlink:href="#mbc15024787" x="57.6" y="109.364488" style="stroke: #000000; stroke-width: 0.8"/>
      </g>
     </g>
     <g id="text_15">
      <text style="font: 14.5px &quot;Suisse Int&apos;l Mono&quot;; text-anchor: end" x="50.6" y="114.620738" transform="rotate(-0 50.6 114.620738)">150</text>
     </g>
    </g>
    <g id="ytick_8">
     <g id="line2d_15">
      <g>
       <use xlink:href="#mbc15024787" x="57.6" y="78.63278" style="stroke: #000000; stroke-width: 0.8"/>
      </g>
     </g>
     <g id="text_16">
      <text style="font: 14.5px &quot;Suisse Int&apos;l Mono&quot;; text-anchor: end" x="50.6" y="83.88903" transform="rotate(-0 50.6 83.88903)">175</text>
     </g>
    </g>
    <g id="ytick_9">
     <g id="line2d_16">
      <g>
       <use xlink:href="#mbc15024787" x="57.6" y="47.901073" style="stroke: #000000; stroke-width: 0.8"/>
      </g>
     </g>
     <g id="text_17">
      <text style="font: 14.5px &quot;Suisse Int&apos;l Mono&quot;; text-anchor: end" x="50.6" y="53.157323" transform="rotate(-0 50.6 53.157323)">200</text>
     </g>
    </g>
    <g id="text_18">
     <text style="font: 15px &quot;Suisse Int&apos;l&quot;; text-anchor: middle" x="15.876719" y="174.528" transform="rotate(-90 15.876719 174.528)">Relative absorbance units</text>
    </g>
   </g>
   <g id="line2d_17">
    <path d="M 73.832727 293.742439
L 76.082731 293.422829
L 79.117619 292.845073
L 83.251346 292.181268
L 87.385073 291.406829
L 96.437412 289.243317
L 99.053694 288.985171
L 107.347311 289.095805
L 110.356037 289.390829
L 113.364762 289.75961
L 115.640928 290.288195
L 121.658379 291.82478
L 123.934545 292.27961
L 125.425826 292.574634
L 134.844445 294.258732
L 137.85317 294.455415
L 142.01306 294.492293
L 149.155512 294.086634
L 151.405515 294.467707
L 152.922959 294.713561
L 156.690407 295.008585
L 158.207851 294.959415
L 159.332853 294.910244
L 160.824134 294.66439
L 161.582856 294.406244
L 162.341578 293.926829
L 163.1003 292.968
L 163.46658 292.14439
L 164.225302 289.12039
L 164.591581 286.55122
L 164.984024 282.900293
L 165.350303 277.491512
L 166.109025 259.581073
L 166.867747 228.173268
L 167.992749 152.253659
L 168.751471 97.821659
L 169.117751 74.772878
L 169.48403 59.407024
L 169.876473 53.568
L 170.242752 56.91161
L 170.635195 68.577366
L 171.367754 110.802732
L 172.885198 198.105366
L 173.251478 210.816
L 174.0102 227.718439
L 174.768922 237.528
L 175.527644 243.526829
L 176.260203 247.546537
L 177.018925 250.632
L 177.777647 252.094829
L 178.536369 253.176585
L 179.295091 253.742049
L 181.545094 255.254049
L 182.670096 256.593951
L 184.18754 258.991024
L 185.678821 262.027317
L 190.963713 273.361171
L 192.454994 275.954927
L 193.213716 277.02439
L 194.338718 278.106146
L 195.09744 278.413463
L 195.856162 278.376585
L 197.373606 277.725073
L 198.106165 277.270244
L 198.864887 276.618732
L 199.623609 275.721366
L 200.748611 273.95122
L 201.873613 271.591024
L 202.632335 269.673366
L 205.64106 261.781463
L 206.766062 259.495024
L 207.524784 258.364098
L 208.283506 257.700293
L 209.042228 257.466732
L 209.80095 257.626537
L 210.533509 258.155122
L 211.292231 258.991024
L 212.050953 260.02361
L 216.18468 266.809171
L 218.460846 269.833171
L 219.585848 271.013268
L 221.469571 272.390049
L 222.960853 273.238244
L 225.995741 274.762537
L 227.487022 275.254244
L 228.612024 275.278829
L 229.370746 275.094439
L 230.129468 274.713366
L 231.25447 273.840585
L 232.013192 273.12761
L 233.896915 270.890341
L 235.021917 269.624195
L 236.539361 268.530146
L 237.27192 268.333463
L 238.030642 268.370341
L 238.789364 268.616195
L 239.548086 269.083317
L 240.306808 269.710244
L 243.315534 273.398049
L 244.806815 275.19278
L 246.690539 276.950634
L 247.449261 277.466927
L 250.850429 278.745366
L 254.225433 279.433756
L 256.109157 279.630439
L 259.876605 279.519805
L 262.152771 279.556683
L 263.277772 279.765659
L 265.527776 280.589268
L 267.04522 281.412878
L 271.545226 284.203317
L 274.580114 285.444878
L 275.705116 285.629268
L 276.830118 285.666146
L 277.955119 285.555512
L 279.472563 285.186732
L 282.481289 283.982049
L 284.731292 283.330537
L 285.856294 283.195317
L 287.007458 283.170732
L 288.891182 283.502634
L 290.382463 284.104976
L 292.266187 285.08839
L 296.033634 287.251902
L 297.917358 288.075512
L 300.559804 289.132683
L 310.344702 291.664976
L 314.870871 291.984585
L 324.655769 291.763317
L 326.931935 291.972293
L 328.423217 292.181268
L 330.67322 292.291902
L 333.708108 292.476293
L 337.475555 292.918829
L 338.208115 293.029463
L 341.975562 293.275317
L 344.618008 293.090927
L 349.902899 292.316488
L 351.027901 292.32878
L 357.437794 293.299902
L 361.937801 293.951415
L 367.222692 294.037463
L 370.231417 293.742439
L 371.748861 293.361366
L 372.873863 292.820488
L 374.757587 291.529756
L 376.248868 290.386537
L 380.408758 287.878829
L 381.141317 287.829659
L 381.900039 288.038634
L 383.025041 288.702439
L 384.908764 290.030049
L 387.943653 291.763317
L 391.318658 293.926829
L 392.836102 294.701268
L 394.327383 295.131512
L 396.603549 295.389659
L 398.487273 295.488
L 398.487273 295.488
" clip-path="url(#pee7e7f58d2)" style="fill: none; stroke: #1f77b4; stroke-width: 1.5; stroke-linecap: square"/>
   </g>
   <g id="patch_3">
    <path d="M 57.6 307.584
L 57.6 41.472
" style="fill: none; stroke: #000000; stroke-width: 0.8; stroke-linejoin: miter; stroke-linecap: square"/>
   </g>
   <g id="patch_4">
    <path d="M 57.6 307.584
L 414.72 307.584
" style="fill: none; stroke: #000000; stroke-width: 0.8; stroke-linejoin: miter; stroke-linecap: square"/>
   </g>
  </g>
 </g>
 <defs>
  <clipPath id="pee7e7f58d2">
   <rect x="57.6" y="41.472" width="357.12" height="266.112"/>
  </clipPath>
 </defs>
</svg>
